  0
SECTION
  2
HEADER
  9
$ACADVER
  1
AC1009
  9
$FILLMODE
 70
 0
  9
$SPLFRAME
 70
 1
  9
$EXTMIN
 10
0
 20
0
 30
0.0
  9
$EXTMAX
 10
1058.33
 20
1058.33
 30
0.0
  0
ENDSEC
  0
SECTION
  2
TABLES
  0
TABLE
  2
LAYER
 70
1
  0
LAYER
  2
0
 70
     0
 62
     7
  6
CONTINUOUS
  0
ENDTAB
  0
ENDSEC
  0
SECTION
  2
ENTITIES
  0
LINE
  8
0
 62
     0
 10
0.0950846
 20
76.4575
 30
0.0
 11
228.695
 21
76.4575
 31
0.0
  0
LINE
  8
0
 62
     0
 10
228.695
 20
76.4575
 30
0.0
 11
228.695
 21
0.257693
 31
0.0
  0
LINE
  8
0
 62
     0
 10
228.695
 20
0.257693
 30
0.0
 11
0.0950846
 21
0.257693
 31
0.0
  0
LINE
  8
0
 62
     0
 10
0.0950846
 20
0.257693
 30
0.0
 11
0.0950846
 21
76.4575
 31
0.0
  0
LINE
  8
0
 62
     0
 10
76.4371
 20
16.7831
 30
0.0
 11
76.4371
 21
12.0826
 31
0.0
  0
LINE
  8
0
 62
     0
 10
76.4371
 20
12.0826
 30
0.0
 11
74.9131
 21
12.0826
 31
0.0
  0
LINE
  8
0
 62
     0
 10
74.9131
 20
12.0826
 30
0.0
 11
74.9131
 21
15.3128
 31
0.0
  0
LINE
  8
0
 62
     0
 10
74.9131
 20
15.3128
 30
0.0
 11
68.162
 21
15.3128
 31
0.0
  0
LINE
  8
0
 62
     0
 10
68.162
 20
15.3128
 30
0.0
 11
68.162
 21
12.0826
 31
0.0
  0
LINE
  8
0
 62
     0
 10
68.162
 20
12.0826
 30
0.0
 11
67.3379
 21
12.0826
 31
0.0
  0
LINE
  8
0
 62
     0
 10
67.3379
 20
12.0826
 30
0.0
 11
67.3379
 21
9.28384
 31
0.0
  0
LINE
  8
0
 62
     0
 10
67.3379
 20
9.28384
 30
0.0
 11
68.162
 21
9.28384
 31
0.0
  0
LINE
  8
0
 62
     0
 10
68.162
 20
9.28384
 30
0.0
 11
68.162
 21
3.01377
 31
0.0
  0
LINE
  8
0
 62
     0
 10
68.162
 20
3.01377
 30
0.0
 11
69.887
 21
3.01377
 31
0.0
  0
LINE
  8
0
 62
     0
 10
69.887
 20
3.01377
 30
0.0
 11
69.887
 21
1.8135
 31
0.0
  0
LINE
  8
0
 62
     0
 10
69.887
 20
1.8135
 30
0.0
 11
73.1876
 21
1.8135
 31
0.0
  0
LINE
  8
0
 62
     0
 10
73.1876
 20
1.8135
 30
0.0
 11
73.1876
 21
3.01377
 31
0.0
  0
LINE
  8
0
 62
     0
 10
73.1876
 20
3.01377
 30
0.0
 11
74.9131
 21
3.01377
 31
0.0
  0
LINE
  8
0
 62
     0
 10
74.9131
 20
3.01377
 30
0.0
 11
74.9131
 21
7.48273
 31
0.0
  0
LINE
  8
0
 62
     0
 10
74.9131
 20
7.48273
 30
0.0
 11
76.4371
 21
7.48273
 31
0.0
  0
LINE
  8
0
 62
     0
 10
76.4371
 20
7.48273
 30
0.0
 11
76.4371
 21
2.78364
 31
0.0
  0
LINE
  8
0
 62
     0
 10
76.4371
 20
2.78364
 30
0.0
 11
90.4378
 21
2.78364
 31
0.0
  0
LINE
  8
0
 62
     0
 10
90.4378
 20
2.78364
 30
0.0
 11
90.4378
 21
7.48273
 31
0.0
  0
LINE
  8
0
 62
     0
 10
90.4378
 20
7.48273
 30
0.0
 11
91.9621
 21
7.48273
 31
0.0
  0
LINE
  8
0
 62
     0
 10
91.9621
 20
7.48273
 30
0.0
 11
91.9621
 21
3.01377
 31
0.0
  0
LINE
  8
0
 62
     0
 10
91.9621
 20
3.01377
 30
0.0
 11
93.6872
 21
3.01377
 31
0.0
  0
LINE
  8
0
 62
     0
 10
93.6872
 20
3.01377
 30
0.0
 11
93.6872
 21
1.8135
 31
0.0
  0
LINE
  8
0
 62
     0
 10
93.6872
 20
1.8135
 30
0.0
 11
96.9878
 21
1.8135
 31
0.0
  0
LINE
  8
0
 62
     0
 10
96.9878
 20
1.8135
 30
0.0
 11
96.9878
 21
3.01377
 31
0.0
  0
LINE
  8
0
 62
     0
 10
96.9878
 20
3.01377
 30
0.0
 11
98.7129
 21
3.01377
 31
0.0
  0
LINE
  8
0
 62
     0
 10
98.7129
 20
3.01377
 30
0.0
 11
98.7129
 21
9.28384
 31
0.0
  0
LINE
  8
0
 62
     0
 10
98.7129
 20
9.28384
 30
0.0
 11
99.537
 21
9.28384
 31
0.0
  0
LINE
  8
0
 62
     0
 10
99.537
 20
9.28384
 30
0.0
 11
99.537
 21
12.0826
 31
0.0
  0
LINE
  8
0
 62
     0
 10
99.537
 20
12.0826
 30
0.0
 11
98.7129
 21
12.0826
 31
0.0
  0
LINE
  8
0
 62
     0
 10
98.7129
 20
12.0826
 30
0.0
 11
98.7129
 21
15.3128
 31
0.0
  0
LINE
  8
0
 62
     0
 10
98.7129
 20
15.3128
 30
0.0
 11
91.9621
 21
15.3128
 31
0.0
  0
LINE
  8
0
 62
     0
 10
91.9621
 20
15.3128
 30
0.0
 11
91.9621
 21
12.0826
 31
0.0
  0
LINE
  8
0
 62
     0
 10
91.9621
 20
12.0826
 30
0.0
 11
90.4378
 21
12.0826
 31
0.0
  0
LINE
  8
0
 62
     0
 10
90.4378
 20
12.0826
 30
0.0
 11
90.4378
 21
16.7831
 31
0.0
  0
LINE
  8
0
 62
     0
 10
90.4378
 20
16.7831
 30
0.0
 11
76.4371
 21
16.7831
 31
0.0
  0
LINE
  8
0
 62
     0
 10
119.301
 20
16.7831
 30
0.0
 11
119.301
 21
12.0826
 31
0.0
  0
LINE
  8
0
 62
     0
 10
119.301
 20
12.0826
 30
0.0
 11
117.776
 21
12.0826
 31
0.0
  0
LINE
  8
0
 62
     0
 10
117.776
 20
12.0826
 30
0.0
 11
117.776
 21
15.3128
 31
0.0
  0
LINE
  8
0
 62
     0
 10
117.776
 20
15.3128
 30
0.0
 11
111.026
 21
15.3128
 31
0.0
  0
LINE
  8
0
 62
     0
 10
111.026
 20
15.3128
 30
0.0
 11
111.026
 21
12.0826
 31
0.0
  0
LINE
  8
0
 62
     0
 10
111.026
 20
12.0826
 30
0.0
 11
110.2
 21
12.0826
 31
0.0
  0
LINE
  8
0
 62
     0
 10
110.2
 20
12.0826
 30
0.0
 11
110.2
 21
9.28384
 31
0.0
  0
LINE
  8
0
 62
     0
 10
110.2
 20
9.28384
 30
0.0
 11
111.026
 21
9.28384
 31
0.0
  0
LINE
  8
0
 62
     0
 10
111.026
 20
9.28384
 30
0.0
 11
111.026
 21
3.01377
 31
0.0
  0
LINE
  8
0
 62
     0
 10
111.026
 20
3.01377
 30
0.0
 11
112.751
 21
3.01377
 31
0.0
  0
LINE
  8
0
 62
     0
 10
112.751
 20
3.01377
 30
0.0
 11
112.751
 21
1.8135
 31
0.0
  0
LINE
  8
0
 62
     0
 10
112.751
 20
1.8135
 30
0.0
 11
116.05
 21
1.8135
 31
0.0
  0
LINE
  8
0
 62
     0
 10
116.05
 20
1.8135
 30
0.0
 11
116.05
 21
3.01377
 31
0.0
  0
LINE
  8
0
 62
     0
 10
116.05
 20
3.01377
 30
0.0
 11
117.776
 21
3.01377
 31
0.0
  0
LINE
  8
0
 62
     0
 10
117.776
 20
3.01377
 30
0.0
 11
117.776
 21
7.48273
 31
0.0
  0
LINE
  8
0
 62
     0
 10
117.776
 20
7.48273
 30
0.0
 11
119.301
 21
7.48273
 31
0.0
  0
LINE
  8
0
 62
     0
 10
119.301
 20
7.48273
 30
0.0
 11
119.301
 21
2.78364
 31
0.0
  0
LINE
  8
0
 62
     0
 10
119.301
 20
2.78364
 30
0.0
 11
133.3
 21
2.78364
 31
0.0
  0
LINE
  8
0
 62
     0
 10
133.3
 20
2.78364
 30
0.0
 11
133.3
 21
7.48273
 31
0.0
  0
LINE
  8
0
 62
     0
 10
133.3
 20
7.48273
 30
0.0
 11
134.826
 21
7.48273
 31
0.0
  0
LINE
  8
0
 62
     0
 10
134.826
 20
7.48273
 30
0.0
 11
134.826
 21
3.01377
 31
0.0
  0
LINE
  8
0
 62
     0
 10
134.826
 20
3.01377
 30
0.0
 11
136.551
 21
3.01377
 31
0.0
  0
LINE
  8
0
 62
     0
 10
136.551
 20
3.01377
 30
0.0
 11
136.551
 21
1.8135
 31
0.0
  0
LINE
  8
0
 62
     0
 10
136.551
 20
1.8135
 30
0.0
 11
139.85
 21
1.8135
 31
0.0
  0
LINE
  8
0
 62
     0
 10
139.85
 20
1.8135
 30
0.0
 11
139.85
 21
3.01377
 31
0.0
  0
LINE
  8
0
 62
     0
 10
139.85
 20
3.01377
 30
0.0
 11
141.575
 21
3.01377
 31
0.0
  0
LINE
  8
0
 62
     0
 10
141.575
 20
3.01377
 30
0.0
 11
141.575
 21
9.28384
 31
0.0
  0
LINE
  8
0
 62
     0
 10
141.575
 20
9.28384
 30
0.0
 11
142.401
 21
9.28384
 31
0.0
  0
LINE
  8
0
 62
     0
 10
142.401
 20
9.28384
 30
0.0
 11
142.401
 21
12.0826
 31
0.0
  0
LINE
  8
0
 62
     0
 10
142.401
 20
12.0826
 30
0.0
 11
141.575
 21
12.0826
 31
0.0
  0
LINE
  8
0
 62
     0
 10
141.575
 20
12.0826
 30
0.0
 11
141.575
 21
15.3128
 31
0.0
  0
LINE
  8
0
 62
     0
 10
141.575
 20
15.3128
 30
0.0
 11
134.826
 21
15.3128
 31
0.0
  0
LINE
  8
0
 62
     0
 10
134.826
 20
15.3128
 30
0.0
 11
134.826
 21
12.0826
 31
0.0
  0
LINE
  8
0
 62
     0
 10
134.826
 20
12.0826
 30
0.0
 11
133.3
 21
12.0826
 31
0.0
  0
LINE
  8
0
 62
     0
 10
133.3
 20
12.0826
 30
0.0
 11
133.3
 21
16.7831
 31
0.0
  0
LINE
  8
0
 62
     0
 10
133.3
 20
16.7831
 30
0.0
 11
119.301
 21
16.7831
 31
0.0
  0
LINE
  8
0
 62
     0
 10
5.00091
 20
16.7831
 30
0.0
 11
19.0004
 21
16.7831
 31
0.0
  0
LINE
  8
0
 62
     0
 10
19.0004
 20
16.7831
 30
0.0
 11
19.0004
 21
2.78364
 31
0.0
  0
LINE
  8
0
 62
     0
 10
19.0004
 20
2.78364
 30
0.0
 11
5.00091
 21
2.78364
 31
0.0
  0
LINE
  8
0
 62
     0
 10
5.00091
 20
2.78364
 30
0.0
 11
5.00091
 21
16.7831
 31
0.0
  0
LINE
  8
0
 62
     0
 10
26.4322
 20
16.7831
 30
0.0
 11
40.4315
 21
16.7831
 31
0.0
  0
LINE
  8
0
 62
     0
 10
40.4315
 20
16.7831
 30
0.0
 11
40.4315
 21
2.78364
 31
0.0
  0
LINE
  8
0
 62
     0
 10
40.4315
 20
2.78364
 30
0.0
 11
26.4322
 21
2.78364
 31
0.0
  0
LINE
  8
0
 62
     0
 10
26.4322
 20
2.78364
 30
0.0
 11
26.4322
 21
16.7831
 31
0.0
  0
LINE
  8
0
 62
     0
 10
45.4822
 20
16.7831
 30
0.0
 11
59.4815
 21
16.7831
 31
0.0
  0
LINE
  8
0
 62
     0
 10
59.4815
 20
16.7831
 30
0.0
 11
59.4815
 21
2.78364
 31
0.0
  0
LINE
  8
0
 62
     0
 10
59.4815
 20
2.78364
 30
0.0
 11
45.4822
 21
2.78364
 31
0.0
  0
LINE
  8
0
 62
     0
 10
45.4822
 20
2.78364
 30
0.0
 11
45.4822
 21
16.7831
 31
0.0
  0
LINE
  8
0
 62
     0
 10
174.07
 20
16.7831
 30
0.0
 11
188.069
 21
16.7831
 31
0.0
  0
LINE
  8
0
 62
     0
 10
188.069
 20
16.7831
 30
0.0
 11
188.069
 21
2.78364
 31
0.0
  0
LINE
  8
0
 62
     0
 10
188.069
 20
2.78364
 30
0.0
 11
174.07
 21
2.78364
 31
0.0
  0
LINE
  8
0
 62
     0
 10
174.07
 20
2.78364
 30
0.0
 11
174.07
 21
16.7831
 31
0.0
  0
LINE
  8
0
 62
     0
 10
193.12
 20
16.7831
 30
0.0
 11
207.119
 21
16.7831
 31
0.0
  0
LINE
  8
0
 62
     0
 10
207.119
 20
16.7831
 30
0.0
 11
207.119
 21
2.78364
 31
0.0
  0
LINE
  8
0
 62
     0
 10
207.119
 20
2.78364
 30
0.0
 11
193.12
 21
2.78364
 31
0.0
  0
LINE
  8
0
 62
     0
 10
193.12
 20
2.78364
 30
0.0
 11
193.12
 21
16.7831
 31
0.0
  0
LINE
  8
0
 62
     0
 10
212.17
 20
16.7831
 30
0.0
 11
226.169
 21
16.7831
 31
0.0
  0
LINE
  8
0
 62
     0
 10
226.169
 20
16.7831
 30
0.0
 11
226.169
 21
2.78364
 31
0.0
  0
LINE
  8
0
 62
     0
 10
226.169
 20
2.78364
 30
0.0
 11
212.17
 21
2.78364
 31
0.0
  0
LINE
  8
0
 62
     0
 10
212.17
 20
2.78364
 30
0.0
 11
212.17
 21
16.7831
 31
0.0
  0
LINE
  8
0
 62
     0
 10
152.637
 20
16.7831
 30
0.0
 11
166.638
 21
16.7831
 31
0.0
  0
LINE
  8
0
 62
     0
 10
166.638
 20
16.7831
 30
0.0
 11
166.638
 21
2.78364
 31
0.0
  0
LINE
  8
0
 62
     0
 10
166.638
 20
2.78364
 30
0.0
 11
152.637
 21
2.78364
 31
0.0
  0
LINE
  8
0
 62
     0
 10
152.637
 20
2.78364
 30
0.0
 11
152.637
 21
16.7831
 31
0.0
  0
LINE
  8
0
 62
     0
 10
9.76203
 20
35.833
 30
0.0
 11
23.7629
 21
35.833
 31
0.0
  0
LINE
  8
0
 62
     0
 10
23.7629
 20
35.833
 30
0.0
 11
23.7629
 21
21.8336
 31
0.0
  0
LINE
  8
0
 62
     0
 10
23.7629
 20
21.8336
 30
0.0
 11
9.76203
 21
21.8336
 31
0.0
  0
LINE
  8
0
 62
     0
 10
9.76203
 20
21.8336
 30
0.0
 11
9.76203
 21
35.833
 31
0.0
  0
LINE
  8
0
 62
     0
 10
35.9572
 20
35.833
 30
0.0
 11
49.9565
 21
35.833
 31
0.0
  0
LINE
  8
0
 62
     0
 10
49.9565
 20
35.833
 30
0.0
 11
49.9565
 21
21.8336
 31
0.0
  0
LINE
  8
0
 62
     0
 10
49.9565
 20
21.8336
 30
0.0
 11
35.9572
 21
21.8336
 31
0.0
  0
LINE
  8
0
 62
     0
 10
35.9572
 20
21.8336
 30
0.0
 11
35.9572
 21
35.833
 31
0.0
  0
LINE
  8
0
 62
     0
 10
55.0072
 20
35.833
 30
0.0
 11
69.0065
 21
35.833
 31
0.0
  0
LINE
  8
0
 62
     0
 10
69.0065
 20
35.833
 30
0.0
 11
69.0065
 21
21.8336
 31
0.0
  0
LINE
  8
0
 62
     0
 10
69.0065
 20
21.8336
 30
0.0
 11
55.0072
 21
21.8336
 31
0.0
  0
LINE
  8
0
 62
     0
 10
55.0072
 20
21.8336
 30
0.0
 11
55.0072
 21
35.833
 31
0.0
  0
LINE
  8
0
 62
     0
 10
74.0572
 20
35.833
 30
0.0
 11
88.0565
 21
35.833
 31
0.0
  0
LINE
  8
0
 62
     0
 10
88.0565
 20
35.833
 30
0.0
 11
88.0565
 21
21.8336
 31
0.0
  0
LINE
  8
0
 62
     0
 10
88.0565
 20
21.8336
 30
0.0
 11
74.0572
 21
21.8336
 31
0.0
  0
LINE
  8
0
 62
     0
 10
74.0572
 20
21.8336
 30
0.0
 11
74.0572
 21
35.833
 31
0.0
  0
LINE
  8
0
 62
     0
 10
93.1072
 20
35.833
 30
0.0
 11
107.107
 21
35.833
 31
0.0
  0
LINE
  8
0
 62
     0
 10
107.107
 20
35.833
 30
0.0
 11
107.107
 21
21.8336
 31
0.0
  0
LINE
  8
0
 62
     0
 10
107.107
 20
21.8336
 30
0.0
 11
93.1072
 21
21.8336
 31
0.0
  0
LINE
  8
0
 62
     0
 10
93.1072
 20
21.8336
 30
0.0
 11
93.1072
 21
35.833
 31
0.0
  0
LINE
  8
0
 62
     0
 10
112.157
 20
35.833
 30
0.0
 11
126.157
 21
35.833
 31
0.0
  0
LINE
  8
0
 62
     0
 10
126.157
 20
35.833
 30
0.0
 11
126.157
 21
21.8336
 31
0.0
  0
LINE
  8
0
 62
     0
 10
126.157
 20
21.8336
 30
0.0
 11
112.157
 21
21.8336
 31
0.0
  0
LINE
  8
0
 62
     0
 10
112.157
 20
21.8336
 30
0.0
 11
112.157
 21
35.833
 31
0.0
  0
LINE
  8
0
 62
     0
 10
131.207
 20
35.833
 30
0.0
 11
145.207
 21
35.833
 31
0.0
  0
LINE
  8
0
 62
     0
 10
145.207
 20
35.833
 30
0.0
 11
145.207
 21
21.8336
 31
0.0
  0
LINE
  8
0
 62
     0
 10
145.207
 20
21.8336
 30
0.0
 11
131.207
 21
21.8336
 31
0.0
  0
LINE
  8
0
 62
     0
 10
131.207
 20
21.8336
 30
0.0
 11
131.207
 21
35.833
 31
0.0
  0
LINE
  8
0
 62
     0
 10
150.257
 20
35.833
 30
0.0
 11
164.257
 21
35.833
 31
0.0
  0
LINE
  8
0
 62
     0
 10
164.257
 20
35.833
 30
0.0
 11
164.257
 21
21.8336
 31
0.0
  0
LINE
  8
0
 62
     0
 10
164.257
 20
21.8336
 30
0.0
 11
150.257
 21
21.8336
 31
0.0
  0
LINE
  8
0
 62
     0
 10
150.257
 20
21.8336
 30
0.0
 11
150.257
 21
35.833
 31
0.0
  0
LINE
  8
0
 62
     0
 10
193.118
 20
35.833
 30
0.0
 11
207.119
 21
35.833
 31
0.0
  0
LINE
  8
0
 62
     0
 10
207.119
 20
35.833
 30
0.0
 11
207.119
 21
21.8336
 31
0.0
  0
LINE
  8
0
 62
     0
 10
207.119
 20
21.8336
 30
0.0
 11
193.118
 21
21.8336
 31
0.0
  0
LINE
  8
0
 62
     0
 10
193.118
 20
21.8336
 30
0.0
 11
193.118
 21
35.833
 31
0.0
  0
LINE
  8
0
 62
     0
 10
171.687
 20
35.833
 30
0.0
 11
185.688
 21
35.833
 31
0.0
  0
LINE
  8
0
 62
     0
 10
185.688
 20
35.833
 30
0.0
 11
185.688
 21
21.8336
 31
0.0
  0
LINE
  8
0
 62
     0
 10
185.688
 20
21.8336
 30
0.0
 11
171.687
 21
21.8336
 31
0.0
  0
LINE
  8
0
 62
     0
 10
171.687
 20
21.8336
 30
0.0
 11
171.687
 21
35.833
 31
0.0
  0
LINE
  8
0
 62
     0
 10
212.17
 20
35.833
 30
0.0
 11
226.169
 21
35.833
 31
0.0
  0
LINE
  8
0
 62
     0
 10
226.169
 20
35.833
 30
0.0
 11
226.169
 21
21.8336
 31
0.0
  0
LINE
  8
0
 62
     0
 10
226.169
 20
21.8336
 30
0.0
 11
212.17
 21
21.8336
 31
0.0
  0
LINE
  8
0
 62
     0
 10
212.17
 20
21.8336
 30
0.0
 11
212.17
 21
35.833
 31
0.0
  0
LINE
  8
0
 62
     0
 10
5.00091
 20
54.8831
 30
0.0
 11
19.0004
 21
54.8831
 31
0.0
  0
LINE
  8
0
 62
     0
 10
19.0004
 20
54.8831
 30
0.0
 11
19.0004
 21
40.8838
 31
0.0
  0
LINE
  8
0
 62
     0
 10
19.0004
 20
40.8838
 30
0.0
 11
5.00091
 21
40.8838
 31
0.0
  0
LINE
  8
0
 62
     0
 10
5.00091
 20
40.8838
 30
0.0
 11
5.00091
 21
54.8831
 31
0.0
  0
LINE
  8
0
 62
     0
 10
26.4322
 20
54.8831
 30
0.0
 11
40.4315
 21
54.8831
 31
0.0
  0
LINE
  8
0
 62
     0
 10
40.4315
 20
54.8831
 30
0.0
 11
40.4315
 21
40.8838
 31
0.0
  0
LINE
  8
0
 62
     0
 10
40.4315
 20
40.8838
 30
0.0
 11
26.4322
 21
40.8838
 31
0.0
  0
LINE
  8
0
 62
     0
 10
26.4322
 20
40.8838
 30
0.0
 11
26.4322
 21
54.8831
 31
0.0
  0
LINE
  8
0
 62
     0
 10
45.4822
 20
54.8831
 30
0.0
 11
59.4815
 21
54.8831
 31
0.0
  0
LINE
  8
0
 62
     0
 10
59.4815
 20
54.8831
 30
0.0
 11
59.4815
 21
40.8838
 31
0.0
  0
LINE
  8
0
 62
     0
 10
59.4815
 20
40.8838
 30
0.0
 11
45.4822
 21
40.8838
 31
0.0
  0
LINE
  8
0
 62
     0
 10
45.4822
 20
40.8838
 30
0.0
 11
45.4822
 21
54.8831
 31
0.0
  0
LINE
  8
0
 62
     0
 10
64.5322
 20
54.8831
 30
0.0
 11
78.5315
 21
54.8831
 31
0.0
  0
LINE
  8
0
 62
     0
 10
78.5315
 20
54.8831
 30
0.0
 11
78.5315
 21
40.8838
 31
0.0
  0
LINE
  8
0
 62
     0
 10
78.5315
 20
40.8838
 30
0.0
 11
64.5322
 21
40.8838
 31
0.0
  0
LINE
  8
0
 62
     0
 10
64.5322
 20
40.8838
 30
0.0
 11
64.5322
 21
54.8831
 31
0.0
  0
LINE
  8
0
 62
     0
 10
83.5822
 20
54.8831
 30
0.0
 11
97.5815
 21
54.8831
 31
0.0
  0
LINE
  8
0
 62
     0
 10
97.5815
 20
54.8831
 30
0.0
 11
97.5815
 21
40.8838
 31
0.0
  0
LINE
  8
0
 62
     0
 10
97.5815
 20
40.8838
 30
0.0
 11
83.5822
 21
40.8838
 31
0.0
  0
LINE
  8
0
 62
     0
 10
83.5822
 20
40.8838
 30
0.0
 11
83.5822
 21
54.8831
 31
0.0
  0
LINE
  8
0
 62
     0
 10
102.632
 20
54.8831
 30
0.0
 11
116.632
 21
54.8831
 31
0.0
  0
LINE
  8
0
 62
     0
 10
116.632
 20
54.8831
 30
0.0
 11
116.632
 21
40.8838
 31
0.0
  0
LINE
  8
0
 62
     0
 10
116.632
 20
40.8838
 30
0.0
 11
102.632
 21
40.8838
 31
0.0
  0
LINE
  8
0
 62
     0
 10
102.632
 20
40.8838
 30
0.0
 11
102.632
 21
54.8831
 31
0.0
  0
LINE
  8
0
 62
     0
 10
121.682
 20
54.8831
 30
0.0
 11
135.682
 21
54.8831
 31
0.0
  0
LINE
  8
0
 62
     0
 10
135.682
 20
54.8831
 30
0.0
 11
135.682
 21
40.8838
 31
0.0
  0
LINE
  8
0
 62
     0
 10
135.682
 20
40.8838
 30
0.0
 11
121.682
 21
40.8838
 31
0.0
  0
LINE
  8
0
 62
     0
 10
121.682
 20
40.8838
 30
0.0
 11
121.682
 21
54.8831
 31
0.0
  0
LINE
  8
0
 62
     0
 10
140.732
 20
54.8831
 30
0.0
 11
154.732
 21
54.8831
 31
0.0
  0
LINE
  8
0
 62
     0
 10
154.732
 20
54.8831
 30
0.0
 11
154.732
 21
40.8838
 31
0.0
  0
LINE
  8
0
 62
     0
 10
154.732
 20
40.8838
 30
0.0
 11
140.732
 21
40.8838
 31
0.0
  0
LINE
  8
0
 62
     0
 10
140.732
 20
40.8838
 30
0.0
 11
140.732
 21
54.8831
 31
0.0
  0
LINE
  8
0
 62
     0
 10
159.782
 20
54.8831
 30
0.0
 11
173.782
 21
54.8831
 31
0.0
  0
LINE
  8
0
 62
     0
 10
173.782
 20
54.8831
 30
0.0
 11
173.782
 21
40.8838
 31
0.0
  0
LINE
  8
0
 62
     0
 10
173.782
 20
40.8838
 30
0.0
 11
159.782
 21
40.8838
 31
0.0
  0
LINE
  8
0
 62
     0
 10
159.782
 20
40.8838
 30
0.0
 11
159.782
 21
54.8831
 31
0.0
  0
LINE
  8
0
 62
     0
 10
178.832
 20
54.8831
 30
0.0
 11
192.832
 21
54.8831
 31
0.0
  0
LINE
  8
0
 62
     0
 10
192.832
 20
54.8831
 30
0.0
 11
192.832
 21
40.8838
 31
0.0
  0
LINE
  8
0
 62
     0
 10
192.832
 20
40.8838
 30
0.0
 11
178.832
 21
40.8838
 31
0.0
  0
LINE
  8
0
 62
     0
 10
178.832
 20
40.8838
 30
0.0
 11
178.832
 21
54.8831
 31
0.0
  0
LINE
  8
0
 62
     0
 10
205.026
 20
54.8831
 30
0.0
 11
219.025
 21
54.8831
 31
0.0
  0
LINE
  8
0
 62
     0
 10
219.025
 20
54.8831
 30
0.0
 11
219.025
 21
40.8838
 31
0.0
  0
LINE
  8
0
 62
     0
 10
219.025
 20
40.8838
 30
0.0
 11
205.026
 21
40.8838
 31
0.0
  0
LINE
  8
0
 62
     0
 10
205.026
 20
40.8838
 30
0.0
 11
205.026
 21
54.8831
 31
0.0
  0
LINE
  8
0
 62
     0
 10
2.61965
 20
73.9331
 30
0.0
 11
16.6192
 21
73.9331
 31
0.0
  0
LINE
  8
0
 62
     0
 10
16.6192
 20
73.9331
 30
0.0
 11
16.6192
 21
59.9338
 31
0.0
  0
LINE
  8
0
 62
     0
 10
16.6192
 20
59.9338
 30
0.0
 11
2.61965
 21
59.9338
 31
0.0
  0
LINE
  8
0
 62
     0
 10
2.61965
 20
59.9338
 30
0.0
 11
2.61965
 21
73.9331
 31
0.0
  0
LINE
  8
0
 62
     0
 10
21.6697
 20
73.9331
 30
0.0
 11
35.669
 21
73.9331
 31
0.0
  0
LINE
  8
0
 62
     0
 10
35.669
 20
73.9331
 30
0.0
 11
35.669
 21
59.9338
 31
0.0
  0
LINE
  8
0
 62
     0
 10
35.669
 20
59.9338
 30
0.0
 11
21.6697
 21
59.9338
 31
0.0
  0
LINE
  8
0
 62
     0
 10
21.6697
 20
59.9338
 30
0.0
 11
21.6697
 21
73.9331
 31
0.0
  0
LINE
  8
0
 62
     0
 10
40.7197
 20
73.9331
 30
0.0
 11
54.719
 21
73.9331
 31
0.0
  0
LINE
  8
0
 62
     0
 10
54.719
 20
73.9331
 30
0.0
 11
54.719
 21
59.9338
 31
0.0
  0
LINE
  8
0
 62
     0
 10
54.719
 20
59.9338
 30
0.0
 11
40.7197
 21
59.9338
 31
0.0
  0
LINE
  8
0
 62
     0
 10
40.7197
 20
59.9338
 30
0.0
 11
40.7197
 21
73.9331
 31
0.0
  0
LINE
  8
0
 62
     0
 10
59.7697
 20
73.9331
 30
0.0
 11
73.769
 21
73.9331
 31
0.0
  0
LINE
  8
0
 62
     0
 10
73.769
 20
73.9331
 30
0.0
 11
73.769
 21
59.9338
 31
0.0
  0
LINE
  8
0
 62
     0
 10
73.769
 20
59.9338
 30
0.0
 11
59.7697
 21
59.9338
 31
0.0
  0
LINE
  8
0
 62
     0
 10
59.7697
 20
59.9338
 30
0.0
 11
59.7697
 21
73.9331
 31
0.0
  0
LINE
  8
0
 62
     0
 10
78.8197
 20
73.9331
 30
0.0
 11
92.819
 21
73.9331
 31
0.0
  0
LINE
  8
0
 62
     0
 10
92.819
 20
73.9331
 30
0.0
 11
92.819
 21
59.9338
 31
0.0
  0
LINE
  8
0
 62
     0
 10
92.819
 20
59.9338
 30
0.0
 11
78.8197
 21
59.9338
 31
0.0
  0
LINE
  8
0
 62
     0
 10
78.8197
 20
59.9338
 30
0.0
 11
78.8197
 21
73.9331
 31
0.0
  0
LINE
  8
0
 62
     0
 10
97.8683
 20
73.9331
 30
0.0
 11
111.869
 21
73.9331
 31
0.0
  0
LINE
  8
0
 62
     0
 10
111.869
 20
73.9331
 30
0.0
 11
111.869
 21
59.9338
 31
0.0
  0
LINE
  8
0
 62
     0
 10
111.869
 20
59.9338
 30
0.0
 11
97.8683
 21
59.9338
 31
0.0
  0
LINE
  8
0
 62
     0
 10
97.8683
 20
59.9338
 30
0.0
 11
97.8683
 21
73.9331
 31
0.0
  0
LINE
  8
0
 62
     0
 10
116.918
 20
73.9331
 30
0.0
 11
130.919
 21
73.9331
 31
0.0
  0
LINE
  8
0
 62
     0
 10
130.919
 20
73.9331
 30
0.0
 11
130.919
 21
59.9338
 31
0.0
  0
LINE
  8
0
 62
     0
 10
130.919
 20
59.9338
 30
0.0
 11
116.918
 21
59.9338
 31
0.0
  0
LINE
  8
0
 62
     0
 10
116.918
 20
59.9338
 30
0.0
 11
116.918
 21
73.9331
 31
0.0
  0
LINE
  8
0
 62
     0
 10
135.97
 20
73.9331
 30
0.0
 11
149.969
 21
73.9331
 31
0.0
  0
LINE
  8
0
 62
     0
 10
149.969
 20
73.9331
 30
0.0
 11
149.969
 21
59.9338
 31
0.0
  0
LINE
  8
0
 62
     0
 10
149.969
 20
59.9338
 30
0.0
 11
135.97
 21
59.9338
 31
0.0
  0
LINE
  8
0
 62
     0
 10
135.97
 20
59.9338
 30
0.0
 11
135.97
 21
73.9331
 31
0.0
  0
LINE
  8
0
 62
     0
 10
155.02
 20
73.9331
 30
0.0
 11
169.019
 21
73.9331
 31
0.0
  0
LINE
  8
0
 62
     0
 10
169.019
 20
73.9331
 30
0.0
 11
169.019
 21
59.9338
 31
0.0
  0
LINE
  8
0
 62
     0
 10
169.019
 20
59.9338
 30
0.0
 11
155.02
 21
59.9338
 31
0.0
  0
LINE
  8
0
 62
     0
 10
155.02
 20
59.9338
 30
0.0
 11
155.02
 21
73.9331
 31
0.0
  0
LINE
  8
0
 62
     0
 10
174.07
 20
73.9331
 30
0.0
 11
188.069
 21
73.9331
 31
0.0
  0
LINE
  8
0
 62
     0
 10
188.069
 20
73.9331
 30
0.0
 11
188.069
 21
59.9338
 31
0.0
  0
LINE
  8
0
 62
     0
 10
188.069
 20
59.9338
 30
0.0
 11
174.07
 21
59.9338
 31
0.0
  0
LINE
  8
0
 62
     0
 10
174.07
 20
59.9338
 30
0.0
 11
174.07
 21
73.9331
 31
0.0
  0
LINE
  8
0
 62
     0
 10
193.12
 20
73.9331
 30
0.0
 11
207.119
 21
73.9331
 31
0.0
  0
LINE
  8
0
 62
     0
 10
207.119
 20
73.9331
 30
0.0
 11
207.119
 21
59.9338
 31
0.0
  0
LINE
  8
0
 62
     0
 10
207.119
 20
59.9338
 30
0.0
 11
193.12
 21
59.9338
 31
0.0
  0
LINE
  8
0
 62
     0
 10
193.12
 20
59.9338
 30
0.0
 11
193.12
 21
73.9331
 31
0.0
  0
LINE
  8
0
 62
     0
 10
212.17
 20
73.9331
 30
0.0
 11
226.169
 21
73.9331
 31
0.0
  0
LINE
  8
0
 62
     0
 10
226.169
 20
73.9331
 30
0.0
 11
226.169
 21
59.9338
 31
0.0
  0
LINE
  8
0
 62
     0
 10
226.169
 20
59.9338
 30
0.0
 11
212.17
 21
59.9338
 31
0.0
  0
LINE
  8
0
 62
     0
 10
212.17
 20
59.9338
 30
0.0
 11
212.17
 21
73.9331
 31
0.0
  0
ENDSEC
  0
EOF
